<svg width="48" height="31" viewBox="0 0 48 31" fill="none" xmlns="http://www.w3.org/2000/svg">
<path d="M48 15.4171C48 16.0577 47.552 16.5775 47 16.5775H8.14283C7.59083 16.5775 7.14283 16.0577 7.14283 15.4171C7.14283 14.7766 7.59083 14.2567 8.14283 14.2567H47C47.552 14.2567 48 14.7766 48 15.4171ZM1 2.32085H47C47.552 2.32085 48 1.80098 48 1.16043C48 0.519872 47.552 0 47 0H1C0.448 0 0 0.519872 0 1.16043C0 1.80098 0.448 2.32085 1 2.32085ZM47 28.6791H17.1428C16.5908 28.6791 16.1428 29.199 16.1428 29.8396C16.1428 30.4801 16.5908 31 17.1428 31H47C47.552 31 48 30.4801 48 29.8396C48 29.199 47.552 28.6791 47 28.6791Z" fill="white"/>
</svg>
